<svg data-v-423bf9ae="" xmlns="http://www.w3.org/2000/svg" viewBox="0 0 466.2277994144664 163" class="iconAbove"><!----><!----><!----><g data-v-423bf9ae="" id="e2f57bf2-dff1-4423-868c-6e194df5f1e5" fill="black" transform="matrix(4.224608525153769,0,0,4.224608525153769,-1.1828896464601257,91.60411639791951)"><path d="M4.86 7.71L4.86 7.71Q4.86 7.85 4.94 7.92L4.94 7.92L4.94 7.92Q5.03 7.98 5.28 8.09L5.28 8.09L5.28 8.09Q5.45 8.15 5.71 8.29L5.71 8.29L5.71 8.29Q6.19 8.76 6.52 9.59L6.52 9.59L6.52 9.59Q6.85 10.42 6.85 11.42L6.85 11.42L6.85 11.42Q6.90 11.77 6.90 12.24L6.90 12.24L6.90 12.24Q6.90 13.58 6.33 14.80L6.33 14.80L6.33 14.80Q5.77 16.02 4.86 16.58L4.86 16.58L4.86 16.58Q4.47 16.77 4.05 16.81L4.05 16.81L4.05 16.81Q3.64 16.86 2.86 16.86L2.86 16.86L2.86 16.86Q2.56 16.86 2.00 16.72L2.00 16.72L2.00 16.72Q1.41 16.58 1.13 16.58L1.13 16.58L1.13 16.58Q0.78 16.58 0.62 16.55L0.62 16.55L0.62 16.55Q0.46 16.52 0.37 16.40L0.37 16.40L0.37 16.40Q0.28 16.28 0.28 16.00L0.28 16.00L0.28 15.71L1.13 15.71L1.13 15.71Q1.22 15.36 1.27 14.59L1.27 14.59L1.27 14.59Q1.29 14.20 1.29 13.38L1.29 13.38L1.29 13.38Q1.29 12.56 1.31 11.99L1.31 11.99L1.31 11.99Q1.33 11.42 1.43 10.85L1.43 10.85L1.43 10.29L1.43 8.86L1.43 5.99L1.43 3.71L1.43 3.71Q0.85 3.71 0.57 3.61L0.57 3.61L0.57 3.61Q0.28 3.51 0.28 3.14L0.28 3.14L0.28 3.14Q0.46 2.95 0.80 2.91L0.80 2.91L0.80 2.91Q1.13 2.86 1.71 2.86L1.71 2.86L1.71 2.86Q3.14 2.86 3.95 2.95L3.95 2.95L3.95 2.95Q4.76 3.05 5.14 3.43L5.14 3.43L5.14 3.43Q5.19 3.54 5.24 3.63L5.24 3.63L5.24 3.63Q5.29 3.71 5.32 3.78L5.32 3.78L5.32 3.78Q5.53 4.14 5.62 4.42L5.62 4.42L5.62 4.42Q5.71 4.70 5.71 5.14L5.71 5.14L5.71 5.14Q5.78 5.33 5.78 5.63L5.78 5.63L5.78 5.63Q5.78 6.16 5.51 6.74L5.51 6.74L5.51 6.74Q5.24 7.32 4.86 7.71L4.86 7.71ZM3.14 3.71L3.14 3.71Q2.94 3.91 2.90 4.13L2.90 4.13L2.90 4.13Q2.86 4.35 2.86 4.86L2.86 4.86L2.86 4.86Q2.86 5.64 2.90 6.06L2.90 6.06L2.90 6.06Q2.94 6.47 3.14 6.86L3.14 6.86L3.14 6.86Q3.21 6.93 3.29 6.93L3.29 6.93L3.29 6.93Q3.40 6.93 3.51 6.83L3.51 6.83L3.51 6.83Q3.63 6.72 3.78 6.52L3.78 6.52L3.99 6.29L3.99 6.29Q4.19 5.73 4.29 5.31L4.29 5.31L4.29 5.31Q4.40 4.90 4.40 4.56L4.40 4.56L4.40 4.56Q4.40 4.23 4.28 4.00L4.28 4.00L4.28 4.00Q4.09 3.81 3.79 3.76L3.79 3.76L3.79 3.76Q3.49 3.71 3.14 3.71L3.14 3.71ZM4.28 15.43L4.86 14.85L4.86 14.85Q5.04 14.67 5.09 14.37L5.09 14.37L5.09 14.37Q5.14 14.07 5.14 13.72L5.14 13.72L5.14 13.72Q5.35 13.50 5.38 13.43L5.38 13.43L5.38 13.43Q5.42 13.36 5.42 13.15L5.42 13.15L5.42 13.15Q5.54 12.89 5.54 12.42L5.54 12.42L5.54 12.42Q5.54 12.22 5.47 11.49L5.47 11.49L5.47 11.49Q5.42 10.99 5.42 10.85L5.42 10.85L5.43 10.37L5.43 10.37Q5.43 10.21 5.39 10.05L5.39 10.05L5.39 10.05Q5.35 9.90 5.22 9.65L5.22 9.65L5.22 9.65Q5.22 9.65 5.23 9.63L5.23 9.63L5.23 9.63Q5.24 9.60 5.24 9.58L5.24 9.58L5.21 9.37L5.21 9.37Q5.19 9.32 5.13 9.18L5.13 9.18L5.13 9.18Q5.07 9.04 4.98 8.85L4.98 8.85L4.98 8.85Q4.56 8.43 4.07 8.21L4.07 8.21L4.07 8.21Q3.58 7.99 3.14 7.99L3.14 7.99L3.14 7.99Q2.95 8.19 2.91 8.49L2.91 8.49L2.91 8.49Q2.86 8.79 2.86 9.14L2.86 9.14L2.86 13.72L2.86 15.71L2.86 15.71Q3.42 15.71 3.75 15.66L3.75 15.66L3.75 15.66Q4.09 15.61 4.28 15.43L4.28 15.43ZM12.54 15.65L12.54 15.65Q12.54 13.79 12.50 12.54L12.50 12.54L12.50 12.54Q12.45 11.30 12.24 10.32L12.24 10.32L12.24 10.32Q11.96 10.32 11.33 10.19L11.33 10.19L11.33 10.19Q10.43 10.02 9.91 10.02L9.91 10.02L9.91 10.02Q9.70 10.22 9.65 10.57L9.65 10.57L9.65 10.57Q9.60 10.92 9.60 11.54L9.60 11.54L9.60 11.54Q9.39 12.32 9.34 13.24L9.34 13.24L9.34 13.24Q9.28 14.17 9.28 15.67L9.28 15.67L9.28 15.67Q9.41 15.76 9.52 15.79L9.52 15.79L9.52 15.79Q9.60 15.81 9.76 15.81L9.76 15.81L9.76 15.81Q9.90 15.81 10.00 15.83L10.00 15.83L10.00 15.83Q10.09 15.85 10.18 15.93L10.18 15.93L10.18 15.93Q10.18 16.16 10.16 16.32L10.16 16.32L10.16 16.32Q10.15 16.48 10.14 16.52L10.14 16.52L10.14 16.52Q9.77 16.77 9.39 16.79L9.39 16.79L9.39 16.79Q9.32 16.80 9.17 16.80L9.17 16.80L9.17 16.80Q8.90 16.80 8.65 16.76L8.65 16.76L8.65 16.76Q8.32 16.73 8.15 16.73L8.15 16.73L8.15 16.73Q7.83 16.73 7.55 16.83L7.55 16.83L6.93 16.24L6.93 16.24Q7.45 15.67 7.81 15.67L7.81 15.67L7.81 15.67Q8.02 15.67 8.07 15.52L8.07 15.52L8.07 15.52Q8.12 15.37 8.12 15.06L8.12 15.06L8.12 15.06Q8.29 13.96 8.61 11.42L8.61 11.42L8.61 11.42Q8.88 9.30 8.99 8.55L8.99 8.55L8.99 8.55Q8.99 7.94 9.16 7.32L9.16 7.32L9.16 7.32Q9.34 6.71 9.60 6.20L9.60 6.20L9.60 6.20Q9.81 5.39 10.16 4.72L10.16 4.72L10.16 4.72Q10.51 4.05 11.06 3.25L11.06 3.25L11.06 3.25Q11.09 3.22 11.21 3.12L11.21 3.12L11.21 3.12Q11.33 3.02 11.51 2.93L11.51 2.93L11.51 2.93Q11.69 2.84 11.89 2.84L11.89 2.84L11.89 2.84Q12.08 2.84 12.24 2.94L12.24 2.94L12.24 2.94Q12.53 3.08 12.82 3.46L12.82 3.46L12.82 3.46Q13.10 3.84 13.29 4.27L13.29 4.27L13.29 4.27Q13.47 4.70 13.47 5.01L13.47 5.01L13.47 5.01Q13.80 5.70 13.92 6.59L13.92 6.59L13.92 6.59Q14.03 7.57 14.31 10.78L14.31 10.78L14.31 10.78Q14.45 12.56 14.60 14.17L14.60 14.17L14.60 15.96L14.60 15.96Q14.60 16.03 14.66 16.12L14.66 16.12L14.66 16.12Q14.71 16.21 14.73 16.24L14.73 16.24L14.73 16.24Q14.88 16.42 14.88 16.55L14.88 16.55L14.88 16.55Q14.88 16.72 14.60 16.84L14.60 16.84L14.24 16.76L14.24 16.76Q13.82 16.76 13.40 16.80L13.40 16.80L13.40 16.80Q13.26 16.81 13.01 16.83L13.01 16.83L13.01 16.83Q12.75 16.84 12.54 16.84L12.54 16.84L12.54 16.84Q12.46 16.86 12.29 16.88L12.29 16.88L12.29 16.88Q12.12 16.90 12.03 16.90L12.03 16.90L12.03 16.90Q11.76 16.90 11.76 16.73L11.76 16.73L11.76 16.73Q11.76 16.58 11.89 16.32L11.89 16.32L11.89 16.32Q12.03 16.06 12.21 15.86L12.21 15.86L12.21 15.86Q12.40 15.65 12.54 15.65L12.54 15.65ZM11.06 4.70L11.06 4.70Q10.84 5.36 10.61 6.13L10.61 6.13L10.61 6.13Q10.37 6.90 10.18 7.67L10.18 7.67L10.18 7.67Q10.18 7.84 10.05 8.34L10.05 8.34L10.05 8.34Q9.91 8.96 9.91 9.17L9.91 9.17L9.91 9.17Q10.49 9.34 11.04 9.39L11.04 9.39L11.04 9.39Q11.59 9.44 12.24 9.44L12.24 9.44L12.24 7.67L12.24 7.67Q12.24 7.04 12.07 6.21L12.07 6.21L12.07 6.21Q11.91 5.38 11.68 4.70L11.68 4.70L11.68 4.70Q11.68 4.63 11.62 4.52L11.62 4.52L11.62 4.52Q11.56 4.41 11.37 4.41L11.37 4.41L11.06 4.70ZM23.91 3.00L23.91 3.00Q23.91 3.12 23.85 3.25L23.85 3.25L23.85 3.25Q23.79 3.37 23.72 3.45L23.72 3.45L23.72 3.45Q23.66 3.53 23.63 3.56L23.63 3.56L23.06 3.56L23.06 3.56Q22.93 3.68 22.93 3.85L22.93 3.85L22.93 3.85Q22.93 3.92 22.99 4.14L22.99 4.14L22.99 4.14Q23.06 4.52 23.06 4.69L23.06 4.69L23.06 7.87L23.06 7.87Q23.06 12.96 23.28 16.17L23.28 16.17L23.28 16.17Q23.30 16.51 23.11 16.66L23.11 16.66L23.11 16.66Q22.93 16.81 22.67 16.81L22.67 16.81L22.67 16.81Q22.47 16.81 22.28 16.74L22.28 16.74L22.28 16.74Q22.09 16.67 21.99 16.58L21.99 16.58L21.99 16.58Q21.88 16.24 21.73 15.80L21.73 15.80L21.73 15.80Q21.59 15.36 21.41 14.80L21.41 14.80L21.41 14.80Q20.38 11.80 19.96 10.32L19.96 10.32L19.96 10.32Q19.84 9.84 19.59 9.28L19.59 9.28L19.59 9.28Q19.33 8.71 19.31 8.65L19.31 8.65L19.31 8.65Q19.22 8.47 19.18 8.35L19.18 8.35L19.18 8.35Q19.14 8.23 19.12 8.20L19.12 8.20L19.12 8.20Q19.01 7.95 18.96 7.56L18.96 7.56L18.96 7.56Q18.89 7.20 18.80 7.01L18.80 7.01L18.80 7.01Q18.72 6.82 18.48 6.69L18.48 6.69L18.48 8.65L18.48 10.89L18.48 13.15L18.48 13.99L18.48 15.39L18.48 15.39Q18.66 15.57 18.85 15.62L18.85 15.62L18.85 15.62Q19.04 15.67 19.31 15.67L19.31 15.67L19.31 15.67Q19.31 15.81 19.33 16.09L19.33 16.09L19.33 16.09Q19.36 16.31 19.36 16.39L19.36 16.39L19.36 16.39Q19.36 16.59 19.29 16.69L19.29 16.69L19.29 16.69Q19.21 16.79 19.00 16.79L19.00 16.79L18.37 16.80L16.49 16.84L16.49 16.84Q16.38 16.84 16.34 16.75L16.34 16.75L16.34 16.75Q16.31 16.66 16.31 16.48L16.31 16.48L16.31 16.48Q16.31 16.28 16.32 16.17L16.32 16.17L16.34 15.75L16.34 15.75Q16.37 15.76 16.46 15.79L16.46 15.79L16.46 15.79Q16.55 15.82 16.63 15.82L16.63 15.82L16.63 15.82Q16.80 15.82 16.80 15.67L16.80 15.67L16.80 15.67Q16.95 15.34 16.95 14.81L16.95 14.81L16.95 14.81Q16.95 14.59 16.93 14.20L16.93 14.20L16.93 14.20Q16.90 13.83 16.90 13.71L16.90 13.71L16.90 13.71Q16.90 13.22 16.84 12.21L16.84 12.21L16.84 12.21Q16.80 11.59 16.80 11.19L16.80 11.19L16.79 9.21L16.79 9.21Q16.79 8.89 16.73 8.36L16.73 8.36L16.73 8.36Q16.67 7.83 16.67 7.56L16.67 7.56L16.67 7.56Q16.67 7.48 16.60 7.13L16.60 7.13L16.60 7.13Q16.52 6.82 16.52 6.69L16.52 6.69L16.52 6.41L16.52 5.56L16.52 5.56Q16.52 5.35 16.51 5.26L16.51 5.26L16.49 4.84L16.49 4.84Q16.49 4.62 16.35 4.28L16.35 4.28L16.35 4.28Q16.24 4.00 16.24 3.88L16.24 3.88L16.24 3.88Q15.83 3.88 15.61 3.71L15.61 3.71L15.61 3.71Q15.39 3.54 15.39 3.32L15.39 3.32L15.39 3.32Q15.39 3.11 15.53 2.95L15.53 2.95L15.53 2.95Q15.67 2.80 15.88 2.80L15.88 2.80L15.88 2.80Q15.99 2.80 16.05 2.79L16.05 2.79L16.05 2.79Q16.11 2.79 16.17 2.79L16.17 2.79L16.17 2.79Q16.30 2.76 16.52 2.74L16.52 2.74L16.52 2.74Q16.62 2.73 16.74 2.75L16.74 2.75L16.74 2.75Q16.87 2.77 16.94 2.77L16.94 2.77L16.94 2.77Q17.22 2.80 17.43 2.80L17.43 2.80L17.43 2.80Q17.60 2.80 17.71 2.91L17.71 2.91L17.71 2.91Q17.82 3.02 17.87 3.15L17.87 3.15L17.87 3.15Q17.92 3.28 17.92 3.32L17.92 3.32L17.92 3.32Q18.47 4.12 18.86 5.01L18.86 5.01L18.86 5.01Q19.25 5.89 19.78 7.28L19.78 7.28L19.78 7.28Q20.24 8.50 20.44 8.93L20.44 8.93L20.44 8.93Q20.62 9.51 20.82 9.93L20.82 9.93L20.82 9.93Q21.01 10.36 21.29 10.89L21.29 10.89L21.29 10.89Q21.29 11.09 21.34 11.26L21.34 11.26L21.34 11.26Q21.39 11.44 21.53 11.76L21.53 11.76L21.53 11.76Q21.57 11.84 21.67 12.21L21.67 12.21L21.67 12.21Q21.78 12.56 21.92 12.94L21.92 12.94L21.92 12.94Q22.06 13.33 22.19 13.50L22.19 13.50L22.19 13.50Q22.22 13.54 22.23 13.49L22.23 13.49L22.23 13.49Q22.23 13.44 22.23 13.34L22.23 13.34L22.23 13.34Q22.23 13.13 22.18 12.40L22.18 12.40L22.18 12.40Q22.12 11.68 22.12 11.47L22.12 11.47L22.12 11.47Q22.12 10.84 22.18 9.27L22.18 9.27L22.18 9.27Q22.23 7.59 22.23 6.65L22.23 6.65L22.23 6.37L22.23 6.37Q22.23 5.94 22.09 5.24L22.09 5.24L22.09 5.24Q21.95 4.54 21.95 4.12L21.95 4.12L21.95 4.12Q21.69 3.85 21.48 3.70L21.48 3.70L21.48 3.70Q21.28 3.56 21.10 3.56L21.10 3.56L21.10 3.56Q21.01 3.47 20.91 3.40L20.91 3.40L20.91 3.40Q20.80 3.32 20.75 3.25L20.75 3.25L20.75 3.25Q20.71 3.18 20.71 3.08L20.71 3.08L20.71 3.08Q20.71 2.93 20.82 2.70L20.82 2.70L20.82 2.70Q20.94 2.70 21.02 2.74L21.02 2.74L21.02 2.74Q21.10 2.79 21.32 2.79L21.32 2.79L21.32 2.79Q21.59 2.79 21.75 2.75L21.75 2.75L21.75 2.75Q21.91 2.72 21.95 2.70L21.95 2.70L21.95 2.70Q22.12 2.74 22.32 2.74L22.32 2.74L22.32 2.74Q22.46 2.74 22.76 2.72L22.76 2.72L22.76 2.72Q23.20 2.69 23.38 2.70L23.38 2.70L23.38 2.70Q23.79 2.73 23.91 3.00L23.91 3.00ZM30.52 3.99L30.52 3.99Q30.52 4.73 30.38 5.33L30.38 5.33L30.38 5.33Q30.24 5.92 29.96 6.82L29.96 6.82L29.96 6.82Q29.68 7.39 29.44 7.84L29.44 7.84L29.11 8.51L29.11 8.51Q29.11 8.74 29.14 8.77L29.14 8.77L29.14 8.77Q29.18 8.81 29.39 8.81L29.39 8.81L29.39 8.81Q29.54 8.95 29.96 9.23L29.96 9.23L29.96 9.23Q30.38 9.51 30.52 9.65L30.52 9.65L30.52 9.65Q30.94 10.21 31.13 10.93L31.13 10.93L31.13 10.93Q31.32 11.65 31.47 12.77L31.47 12.77L31.47 12.77Q31.57 13.50 31.65 13.90L31.65 13.90L31.65 13.90Q31.65 14.04 31.58 14.49L31.58 14.49L31.58 14.49Q31.53 14.83 31.53 14.95L31.53 14.95L31.53 14.95Q31.53 15.19 31.65 15.32L31.65 15.32L31.65 15.32Q31.65 15.41 31.73 15.50L31.73 15.50L31.73 15.50Q31.81 15.58 31.98 15.72L31.98 15.72L31.98 15.72Q32.00 15.75 32.10 15.83L32.10 15.83L32.10 15.83Q32.20 15.92 32.25 16.00L32.25 16.00L32.25 16.00Q32.30 16.07 32.30 16.14L32.30 16.14L32.30 16.14Q32.30 16.31 32.21 16.48L32.21 16.48L32.21 16.48Q32.13 16.65 32.10 16.69L32.10 16.69L32.10 16.69Q31.56 16.69 30.55 16.72L30.55 16.72L29.50 16.73L29.50 16.73Q29.33 16.55 29.33 16.37L29.33 16.37L29.33 16.37Q29.33 16.30 29.35 16.24L29.35 16.24L29.35 16.24Q29.37 16.18 29.39 16.17L29.39 16.17L29.96 15.60L29.96 15.60Q30.07 15.33 30.07 15.04L30.07 15.04L30.07 15.04Q30.07 14.84 30.02 14.48L30.02 14.48L30.02 14.48Q29.96 14.08 29.96 13.90L29.96 13.90L29.96 12.19L29.96 11.91L29.96 11.91Q29.96 11.21 29.74 10.53L29.74 10.53L29.74 10.53Q29.51 9.84 29.11 9.65L29.11 9.65L29.11 9.65Q28.69 9.44 28.25 9.44L28.25 9.44L28.25 9.44Q27.83 9.44 27.40 9.65L27.40 9.65L27.40 9.65Q27.05 10.00 27.05 11.12L27.05 11.12L27.05 11.12Q27.05 11.63 27.09 12.14L27.09 12.14L27.09 12.14Q27.12 12.78 27.12 13.03L27.12 13.03L27.12 13.03Q27.12 13.23 27.08 13.41L27.08 13.41L27.08 13.41Q27.03 13.59 26.98 13.76L26.98 13.76L26.98 13.76Q26.82 14.15 26.82 14.48L26.82 14.48L26.82 15.60L26.82 15.60Q27.09 15.72 27.26 15.93L27.26 15.93L27.26 15.93Q27.43 16.13 27.43 16.31L27.43 16.31L27.43 16.31Q27.43 16.58 27.12 16.73L27.12 16.73L27.12 16.73Q26.98 16.67 26.70 16.65L26.70 16.65L26.60 16.65L26.60 16.65Q26.38 16.65 25.98 16.73L25.98 16.73L25.98 16.73Q25.56 16.81 25.35 16.81L25.35 16.81L25.35 16.81Q25.13 16.81 24.86 16.73L24.86 16.73L24.86 16.73Q24.64 16.51 24.61 16.44L24.61 16.44L24.61 16.44Q24.57 16.37 24.57 16.17L24.57 16.17L24.57 16.17Q24.67 16.07 24.88 15.93L24.88 15.93L24.88 15.93Q25.02 15.85 25.07 15.78L25.07 15.78L25.07 15.78Q25.13 15.71 25.13 15.60L25.13 15.60L25.13 14.18L25.13 11.91L25.13 11.91Q25.13 11.91 25.14 11.84L25.14 11.84L25.14 11.84Q25.16 11.77 25.16 11.61L25.16 11.61L25.13 11.34L25.13 11.34Q25.13 11.19 25.24 10.89L25.24 10.89L25.24 10.89Q25.42 10.29 25.42 9.93L25.42 9.93L25.42 9.93Q25.42 8.16 25.38 6.97L25.38 6.97L25.38 6.97Q25.33 5.78 25.13 4.83L25.13 4.83L25.13 3.99L25.13 3.99Q24.85 3.99 24.71 3.94L24.71 3.94L24.71 3.94Q24.57 3.89 24.57 3.70L24.57 3.70L24.57 3.70Q24.37 3.70 24.37 3.37L24.37 3.37L24.37 3.37Q24.37 3.23 24.42 3.09L24.42 3.09L24.42 3.09Q24.47 2.95 24.54 2.88L24.54 2.88L24.54 2.88Q24.64 2.79 24.82 2.79L24.82 2.79L24.82 2.79Q24.89 2.79 25.12 2.81L25.12 2.81L25.12 2.81Q25.54 2.86 25.65 2.86L25.65 2.86L26.01 2.84L26.01 2.84Q26.40 2.81 26.61 2.81L26.61 2.81L26.61 2.81Q27.10 2.81 27.40 2.94L27.40 2.94L27.40 2.94Q27.69 3.07 27.69 3.42L27.69 3.42L27.69 3.42Q27.69 3.53 27.63 3.59L27.63 3.59L27.63 3.59Q27.57 3.65 27.44 3.74L27.44 3.74L27.44 3.74Q27.20 3.91 27.12 3.99L27.12 3.99L27.12 3.99Q27.12 4.54 27.26 5.54L27.26 5.54L27.26 5.54Q27.40 6.52 27.40 7.10L27.40 7.10L27.40 7.10Q27.40 7.17 27.34 7.42L27.34 7.42L27.34 7.42Q27.33 7.48 27.30 7.62L27.30 7.62L27.30 7.62Q27.27 7.77 27.27 7.88L27.27 7.88L27.27 7.88Q27.27 8.11 27.40 8.23L27.40 8.23L27.40 8.23Q28.18 8.04 28.67 7.34L28.67 7.34L28.67 7.34Q29.15 6.65 29.39 5.68L29.39 5.68L29.39 5.68Q29.39 5.35 29.54 4.83L29.54 4.83L29.54 4.83Q29.68 4.27 29.68 3.99L29.68 3.99L29.11 3.99L29.11 3.99Q29.11 3.82 28.95 3.70L28.95 3.70L28.95 3.70Q28.81 3.56 28.81 3.42L28.81 3.42L28.81 3.42Q28.94 3.19 29.15 3.12L29.15 3.12L29.15 3.12Q29.36 3.05 29.76 3.01L29.76 3.01L29.76 3.01Q30.27 2.98 30.52 2.86L30.52 2.86L30.52 2.86Q30.79 2.94 30.92 3.10L30.92 3.10L30.92 3.10Q31.05 3.26 31.05 3.46L31.05 3.46L31.05 3.46Q31.05 3.67 30.90 3.83L30.90 3.83L30.90 3.83Q30.74 3.99 30.52 3.99L30.52 3.99ZM46.49 15.46L46.49 15.46Q46.35 15.71 46.13 15.95L46.13 15.95L46.13 15.95Q45.91 16.18 45.71 16.31L45.71 16.31L45.71 16.31Q44.90 16.83 43.99 16.83L43.99 16.83L43.99 16.83Q43.08 16.83 42.30 16.34L42.30 16.34L42.30 16.34Q41.52 15.86 41.15 15.16L41.15 15.16L41.15 15.16Q40.63 14.18 40.28 13.15L40.28 13.15L40.28 13.15Q40.10 12.40 40.05 11.64L40.05 11.64L40.05 11.64Q40.00 10.88 40.00 9.73L40.00 9.73L40.00 9.73Q40.00 9.55 39.97 9.21L39.97 9.21L39.97 9.21Q39.94 8.85 39.94 8.67L39.94 8.67L39.94 8.67Q39.94 8.34 40.00 8.01L40.00 8.01L40.00 8.01Q40.01 7.92 40.08 7.55L40.08 7.55L40.08 7.55Q40.15 7.17 40.15 6.92L40.15 6.92L40.15 6.92Q40.18 6.78 40.25 6.38L40.25 6.38L40.25 6.38Q40.31 6.01 40.37 5.78L40.37 5.78L40.37 5.78Q40.43 5.56 40.57 5.43L40.57 5.43L40.57 5.43Q40.73 5.22 41.03 4.75L41.03 4.75L41.03 4.75Q41.45 4.10 41.76 3.74L41.76 3.74L41.76 3.74Q42.06 3.37 42.51 3.11L42.51 3.11L42.51 3.11Q42.97 2.84 43.58 2.84L43.58 2.84L43.58 2.84Q43.86 2.84 44.02 2.87L44.02 2.87L44.02 2.87Q44.86 2.87 45.35 3.12L45.35 3.12L45.35 3.12Q45.85 3.37 46.28 4.02L46.28 4.02L46.28 4.02Q46.94 4.45 47.40 5.36L47.40 5.36L47.40 5.36Q47.85 6.27 47.95 7.36L47.95 7.36L47.95 7.36Q48.01 7.94 48.01 8.88L48.01 8.88L48.01 9.49L48.01 9.49Q48.01 10.92 47.77 11.91L47.77 11.91L47.77 11.91Q47.35 13.90 46.49 15.46L46.49 15.46ZM45.25 15.26L45.25 15.26Q45.43 14.80 45.66 14.08L45.66 14.08L45.66 14.08Q45.89 13.37 46.00 12.88L46.00 12.88L46.00 12.88Q46.19 12.31 46.23 11.73L46.23 11.73L46.23 11.73Q46.28 11.16 46.28 10.30L46.28 10.30L46.28 10.30Q46.28 10.01 46.34 9.56L46.34 9.56L46.34 9.56Q46.34 9.48 46.36 9.26L46.36 9.26L46.36 9.26Q46.38 9.04 46.38 8.85L46.38 8.85L46.38 8.85Q46.38 8.65 46.37 8.39L46.37 8.39L46.37 8.39Q46.35 8.13 46.34 7.99L46.34 7.99L46.34 7.99Q46.28 7.43 46.28 7.15L46.28 7.15L46.28 7.15Q46.14 6.87 46.00 6.31L46.00 6.31L46.00 6.31Q45.86 5.73 45.71 5.43L45.71 5.43L45.56 5.10L45.56 5.10Q45.30 4.55 45.11 4.24L45.11 4.24L45.11 4.24Q44.91 3.93 44.60 3.78L44.60 3.78L44.60 3.78Q44.32 3.78 44.04 3.75L44.04 3.75L44.04 3.75Q43.74 3.72 43.44 3.72L43.44 3.72L43.44 3.72Q43.02 4.14 42.77 4.60L42.77 4.60L42.77 4.60Q42.52 5.05 42.29 5.71L42.29 5.71L42.29 5.71Q42.10 6.09 42.05 6.48L42.05 6.48L42.05 6.48Q42 6.86 42 7.43L42 7.43L42 7.43Q41.89 8.33 41.89 9.42L41.89 9.42L41.89 9.42Q41.89 11.40 42.29 13.72L42.29 13.72L42.29 13.72Q42.39 13.92 42.45 14.14L42.45 14.14L42.45 14.14Q42.52 14.36 42.55 14.43L42.55 14.43L42.55 14.43Q42.63 14.73 42.69 14.89L42.69 14.89L42.69 14.89Q42.76 15.05 42.87 15.16L42.87 15.16L42.87 15.16Q42.98 15.16 43.02 15.20L43.02 15.20L43.02 15.20Q43.05 15.25 43.08 15.39L43.08 15.39L43.08 15.39Q43.11 15.53 43.19 15.61L43.19 15.61L43.19 15.61Q43.41 15.83 43.92 15.83L43.92 15.83L43.92 15.83Q44.35 15.83 44.75 15.67L44.75 15.67L44.75 15.67Q45.15 15.51 45.25 15.26L45.25 15.26ZM56.18 5.36L56.18 5.36Q56.18 5.54 56.04 5.59L56.04 5.59L56.04 5.59Q55.89 5.64 55.61 5.64L55.61 5.64L55.61 5.64Q55.41 5.26 55.37 4.85L55.37 4.85L55.37 4.85Q55.33 4.44 55.33 3.65L55.33 3.65L55.33 3.65Q54.18 3.65 53.47 3.70L53.47 3.70L53.47 3.70Q52.75 3.75 52.18 3.95L52.18 3.95L52.18 3.95Q52.07 4.19 52.07 4.76L52.07 4.76L52.07 4.76Q52.07 5.07 52.12 5.85L52.12 5.85L52.12 5.85Q52.18 6.69 52.18 7.08L52.18 7.08L52.18 7.08Q52.18 7.17 52.16 7.25L52.16 7.25L52.16 7.25Q52.15 7.32 52.14 7.39L52.14 7.39L52.14 7.39Q52.07 7.64 52.07 7.87L52.07 7.87L52.07 7.87Q52.07 8.09 52.18 8.22L52.18 8.22L53.05 8.22L53.05 7.08L53.05 7.08Q53.56 7.06 53.75 7.43L53.75 7.43L53.75 7.43Q53.94 7.81 53.94 8.47L53.94 8.47L53.94 8.47Q53.94 8.72 53.91 9.14L53.91 9.14L53.90 9.65L53.90 9.65Q53.69 9.86 53.59 9.89L53.59 9.89L53.59 9.89Q53.48 9.93 53.05 9.93L53.05 9.93L53.05 9.37L53.05 9.37Q52.86 9.17 52.67 9.12L52.67 9.12L52.67 9.12Q52.47 9.07 52.18 9.07L52.18 9.07L52.18 9.07Q52.00 9.27 51.92 9.48L51.92 9.48L51.92 9.48Q51.84 9.69 51.84 9.95L51.84 9.95L51.84 9.95Q51.84 10.09 51.87 10.43L51.87 10.43L51.87 10.43Q51.91 10.72 51.91 11.07L51.91 11.07L51.91 11.07Q51.73 11.44 51.68 11.93L51.68 11.93L51.68 11.93Q51.63 12.42 51.63 13.08L51.63 13.08L51.63 13.93L51.63 13.93Q51.63 14.49 51.68 14.88L51.68 14.88L51.68 14.88Q51.73 15.26 51.91 15.64L51.91 15.64L51.91 15.64Q52.07 15.64 52.31 15.87L52.31 15.87L52.31 15.87Q52.56 16.10 52.56 16.28L52.56 16.28L52.56 16.28Q52.56 16.49 52.18 16.49L52.18 16.49L52.18 16.49Q52.18 16.62 52.09 16.62L52.09 16.62L52.09 16.62Q52.05 16.62 51.89 16.55L51.89 16.55L51.89 16.55Q51.73 16.49 51.63 16.49L51.63 16.49L51.63 16.49Q51.52 16.49 51.39 16.54L51.39 16.54L51.39 16.54Q51.27 16.59 51.23 16.60L51.23 16.60L51.23 16.60Q51.20 16.62 50.98 16.70L50.98 16.70L50.98 16.70Q50.76 16.77 50.47 16.77L50.47 16.77L50.47 16.77Q50.33 16.77 49.91 16.63L49.91 16.63L49.91 16.63Q49.46 16.49 49.34 16.49L49.34 16.49L49.34 16.49Q49.15 16.49 49.11 16.34L49.11 16.34L49.11 16.34Q49.06 16.20 49.06 15.92L49.06 15.92L49.06 15.92Q49.18 15.79 49.31 15.73L49.31 15.73L49.31 15.73Q49.43 15.67 49.51 15.65L49.51 15.65L49.51 15.65Q49.59 15.64 49.62 15.64L49.62 15.64L49.62 15.64Q49.85 15.51 49.92 15.24L49.92 15.24L49.92 15.24Q49.99 14.97 50.04 14.41L50.04 14.41L50.04 14.41Q50.06 13.72 50.19 13.34L50.19 13.34L50.19 11.07L50.19 11.07Q50.19 10.93 50.26 10.56L50.26 10.56L50.26 10.56Q50.32 10.28 50.32 10.15L50.32 10.15L50.32 10.15Q50.32 9.90 50.19 9.65L50.19 9.65L50.19 9.65Q50.19 9.51 50.29 9.27L50.29 9.27L50.29 9.27Q50.47 8.85 50.47 8.51L50.47 8.51L50.47 8.51Q50.47 8.08 50.33 7.07L50.33 7.07L50.33 7.07Q50.19 6.06 50.19 5.64L50.19 5.64L50.19 5.64Q50.19 5.46 50.25 5.04L50.25 5.04L50.25 5.04Q50.32 4.62 50.32 4.30L50.32 4.30L50.32 4.30Q50.32 3.91 50.19 3.65L50.19 3.65L50.19 3.65Q50.06 3.65 49.60 3.72L49.60 3.72L49.60 3.72Q49.27 3.78 49.14 3.78L49.14 3.78L49.14 3.78Q48.89 3.78 48.76 3.65L48.76 3.65L48.76 3.65Q48.55 3.44 48.55 3.23L48.55 3.23L48.55 3.23Q48.55 3.01 48.76 2.80L48.76 2.80L54.47 2.80L55.61 2.80L55.61 2.80Q55.96 2.80 56.09 3.15L56.09 3.15L56.09 3.15Q56.22 3.50 56.22 4.10L56.22 4.10L56.22 4.10Q56.22 4.37 56.20 4.82L56.20 4.82L56.18 5.36ZM69.79 5.08L69.79 5.08Q69.72 4.98 69.66 4.82L69.66 4.82L69.66 4.82Q69.65 4.72 69.65 4.51L69.65 4.51L69.65 4.51Q69.65 4.28 69.62 4.16L69.62 4.16L69.62 4.16Q69.59 4.03 69.50 3.95L69.50 3.95L69.50 3.95Q69.22 3.79 68.92 3.65L68.92 3.65L68.92 3.65Q68.28 3.65 67.80 3.70L67.80 3.70L67.80 3.70Q67.31 3.75 66.93 3.95L66.93 3.95L66.93 3.95Q66.78 4.09 66.73 4.30L66.73 4.30L66.73 4.30Q66.68 4.52 66.68 4.90L66.68 4.90L66.68 4.90Q66.68 5.56 66.65 6.26L66.65 6.26L66.64 7.07L66.64 7.07Q66.64 7.28 66.71 7.91L66.71 7.91L66.71 7.91Q66.77 8.33 66.77 8.50L66.77 8.50L66.77 8.50Q66.77 8.83 66.64 9.09L66.64 9.09L66.64 9.09Q66.84 9.25 67.28 9.30L67.28 9.30L67.28 9.30Q67.72 9.35 68.35 9.35L68.35 9.35L68.35 9.35Q68.35 9.00 68.40 8.76L68.40 8.76L68.40 8.76Q68.45 8.51 68.64 8.51L68.64 8.51L68.64 8.51Q68.85 8.51 68.92 8.55L68.92 8.55L68.92 8.55Q68.99 8.58 69.22 8.79L69.22 8.79L69.22 8.79Q69.15 8.93 69.15 9.10L69.15 9.10L69.15 9.10Q69.13 9.17 69.13 9.34L69.13 9.34L69.13 9.34Q69.13 9.63 69.17 9.95L69.17 9.95L69.17 9.95Q69.20 10.35 69.20 10.51L69.20 10.51L69.20 10.51Q69.20 10.79 69.14 10.94L69.14 10.94L69.14 10.94Q69.08 11.09 68.92 11.09L68.92 11.09L68.92 11.09Q68.88 11.06 68.74 10.98L68.74 10.98L68.74 10.98Q68.60 10.89 68.47 10.77L68.47 10.77L68.47 10.77Q68.35 10.64 68.35 10.51L68.35 10.51L68.35 10.22L66.93 10.22L66.93 10.22Q66.78 10.67 66.78 11.41L66.78 11.41L66.78 11.41Q66.78 11.89 66.82 12.35L66.82 12.35L66.82 12.35Q66.85 12.91 66.85 13.12L66.85 13.12L66.85 13.12Q66.85 13.17 66.89 14.64L66.89 14.64L66.89 14.64Q66.93 15.26 66.93 15.65L66.93 15.65L66.93 15.65Q67.51 15.85 67.96 15.89L67.96 15.89L67.96 15.89Q68.42 15.93 69.22 15.93L69.22 15.93L69.22 15.93Q69.43 15.83 69.47 15.64L69.47 15.64L69.47 15.64Q69.51 15.51 69.51 15.23L69.51 15.23L69.51 15.23Q69.51 14.94 69.56 14.78L69.56 14.78L69.56 14.78Q69.61 14.62 69.79 14.52L69.79 14.52L69.79 14.52Q70.17 14.52 70.27 14.90L70.27 14.90L70.27 14.90Q70.36 15.29 70.36 15.93L70.36 15.93L70.36 15.93Q70.36 16.13 70.23 16.30L70.23 16.30L70.23 16.30Q70.10 16.48 69.79 16.80L69.79 16.80L68.35 16.80L68.35 16.80Q66.92 16.80 65.92 16.75L65.92 16.75L65.92 16.75Q64.92 16.70 63.78 16.51L63.78 16.51L63.78 15.93L64.93 15.93L64.93 15.93Q65.06 15.19 65.06 14.31L65.06 14.31L65.06 14.31Q65.06 13.82 65.00 12.78L65.00 12.78L65.00 12.78Q64.93 11.87 64.93 11.09L64.93 11.09L64.93 10.51L64.93 7.64L64.93 6.51L64.93 3.95L63.78 3.95L63.78 3.37L63.78 3.37Q64.37 3.22 65.55 3.08L65.55 3.08L65.55 3.08Q66.67 2.94 67.21 2.80L67.21 2.80L70.07 2.80L70.07 2.80Q70.10 2.83 70.17 2.91L70.17 2.91L70.17 2.91Q70.24 2.98 70.30 3.12L70.30 3.12L70.30 3.12Q70.36 3.25 70.36 3.37L70.36 3.37L70.36 3.37Q70.36 3.54 70.43 3.85L70.43 3.85L70.43 3.85Q70.50 4.34 70.50 4.44L70.50 4.44L70.50 4.44Q70.50 4.75 70.35 4.91L70.35 4.91L70.35 4.91Q70.20 5.08 69.79 5.08L69.79 5.08ZM76.94 9.02L76.94 9.02Q77.34 9.52 77.55 10.26L77.55 10.26L77.55 10.26Q77.76 11.00 77.85 11.78L77.85 11.78L77.85 11.78Q77.94 12.56 78.01 13.78L78.01 13.78L78.01 13.78Q78.09 15.19 78.18 15.82L78.18 15.82L78.18 15.82Q78.48 15.82 78.62 15.87L78.62 15.87L78.62 15.87Q78.76 15.92 78.76 16.11L78.76 16.11L78.76 16.11Q78.76 16.80 77.76 16.80L77.76 16.80L77.76 16.80Q77.46 16.80 76.68 16.70L76.68 16.70L76.68 16.70Q76.50 16.52 76.45 16.30L76.45 16.30L76.45 16.21L76.45 16.21Q76.45 16.11 76.54 15.72L76.54 15.72L76.54 15.72Q76.58 15.51 76.63 15.23L76.63 15.23L76.63 15.23Q76.68 14.94 76.68 14.63L76.68 14.63L76.68 14.63Q76.68 14.20 76.61 13.83L76.61 13.83L76.61 13.83Q76.54 13.38 76.54 12.70L76.54 12.70L76.54 12.70Q76.51 11.87 76.43 11.36L76.43 11.36L76.43 11.36Q76.34 10.85 76.02 10.40L76.02 10.40L75.85 10.15L75.85 10.15Q75.66 9.83 75.43 9.60L75.43 9.60L75.43 9.60Q75.43 9.48 75.37 9.41L75.37 9.41L75.37 9.41Q75.31 9.34 75.15 9.24L75.15 9.24L75.15 9.24Q74.96 9.13 74.83 9.02L74.83 9.02L74.83 9.02Q74.54 9.02 74.39 9.07L74.39 9.07L74.39 9.07Q74.24 9.11 74.24 9.30L74.24 9.30L74.24 9.30Q74.10 10.01 74.10 10.88L74.10 10.88L74.10 10.88Q74.10 11.48 74.19 12.54L74.19 12.54L74.19 12.54Q74.24 13.47 74.24 13.80L74.24 13.80L74.24 13.80Q74.24 14.42 74.29 14.82L74.29 14.82L74.29 14.82Q74.34 15.22 74.52 15.62L74.52 15.62L74.52 15.62Q74.52 15.72 74.60 15.79L74.60 15.79L74.60 15.79Q74.68 15.85 74.83 15.92L74.83 15.92L74.83 15.92Q74.97 15.99 75.05 16.04L75.05 16.04L75.05 16.04Q75.12 16.10 75.12 16.20L75.12 16.20L75.12 16.20Q75.12 16.25 75.12 16.42L75.12 16.42L75.12 16.42Q75.12 16.59 75.07 16.66L75.07 16.66L75.07 16.66Q75.01 16.73 74.87 16.73L74.87 16.73L74.87 16.73Q74.62 16.73 74.28 16.69L74.28 16.69L74.28 16.69Q74.16 16.69 73.88 16.67L73.88 16.67L73.88 16.67Q73.60 16.65 73.39 16.65L73.39 16.65L73.39 16.65Q72.76 16.65 72.44 16.81L72.44 16.81L72.44 16.81Q72.06 16.81 71.88 16.79L71.88 16.79L71.88 16.79Q71.69 16.76 71.54 16.63L71.54 16.63L71.54 16.63Q71.39 16.49 71.23 16.20L71.23 16.20L71.23 16.20Q71.44 16.02 71.64 15.97L71.64 15.97L71.64 15.97Q71.83 15.92 72.13 15.92L72.13 15.92L72.13 10.81L72.13 10.81Q72.13 10.67 72.16 10.48L72.16 10.48L72.16 10.48Q72.18 10.29 72.20 10.21L72.20 10.21L72.20 10.21Q72.27 9.88 72.27 9.62L72.27 9.62L72.27 9.62Q72.27 9.30 72.13 9.02L72.13 9.02L72.13 9.02Q72.13 8.82 72.17 8.65L72.17 8.65L72.17 8.65Q72.23 8.29 72.23 8.23L72.23 8.23L72.23 8.23Q72.25 7.76 72.25 7.55L72.25 7.55L72.25 7.55Q72.25 7.11 72.20 6.22L72.20 6.22L72.20 6.22Q72.18 6.05 72.16 5.54L72.16 5.54L72.16 5.54Q72.13 5.03 72.13 4.51L72.13 4.51L72.13 4.51Q71.65 4.51 71.34 4.40L71.34 4.40L71.34 4.40Q71.04 4.30 71.04 4.07L71.04 4.07L71.04 4.07Q71.04 3.64 71.17 3.45L71.17 3.45L71.17 3.45Q71.30 3.26 71.55 3.22L71.55 3.22L71.55 3.22Q71.79 3.18 72.34 3.18L72.34 3.18L72.34 3.18Q72.49 3.18 72.69 3.09L72.69 3.09L72.69 3.09Q72.86 3.01 73.01 3.01L73.01 3.01L73.01 3.01Q73.85 2.87 74.63 2.87L74.63 2.87L74.63 2.87Q75.87 2.87 76.74 3.25L76.74 3.25L76.74 3.25Q77.62 3.63 77.83 4.51L77.83 4.51L77.83 4.51Q78.01 5.24 78.01 5.85L78.01 5.85L78.01 5.85Q78.01 6.47 77.83 6.90L77.83 6.90L77.83 6.90Q77.71 7.18 77.46 7.52L77.46 7.52L77.46 7.52Q77.20 7.85 76.94 8.11L76.94 8.11L76.64 8.41L76.64 8.41Q76.64 8.58 76.79 8.71L76.79 8.71L76.79 8.71Q76.94 8.86 76.94 9.02L76.94 9.02ZM73.96 3.93L73.96 3.93Q73.96 5.31 74.07 7.63L74.07 7.63L74.07 7.63Q74.07 7.78 74.31 7.78L74.31 7.78L74.31 7.78Q74.61 7.78 75.08 7.59L75.08 7.59L75.08 7.59Q75.56 7.39 75.74 7.21L75.74 7.21L75.74 7.21Q75.74 7.04 75.88 6.57L75.88 6.57L75.88 6.57Q75.99 6.22 76.02 6.02L76.02 6.02L76.02 6.02Q76.08 5.73 76.08 5.54L76.08 5.54L76.08 5.54Q76.08 5.40 76.05 5.22L76.05 5.22L76.05 5.22Q76.02 5.04 76.02 4.82L76.02 4.82L76.02 4.82Q76.02 4.56 75.91 4.40L75.91 4.40L75.91 4.40Q75.80 4.24 75.64 4.10L75.64 4.10L75.64 4.10Q75.49 3.96 75.43 3.91L75.43 3.91L73.96 3.93ZM85.39 5.08L85.39 5.08Q85.32 4.98 85.26 4.82L85.26 4.82L85.26 4.82Q85.25 4.72 85.25 4.51L85.25 4.51L85.25 4.51Q85.25 4.28 85.22 4.16L85.22 4.16L85.22 4.16Q85.19 4.03 85.09 3.95L85.09 3.95L85.09 3.95Q84.81 3.79 84.52 3.65L84.52 3.65L84.52 3.65Q83.87 3.65 83.39 3.70L83.39 3.70L83.39 3.70Q82.91 3.75 82.53 3.95L82.53 3.95L82.53 3.95Q82.38 4.09 82.33 4.30L82.33 4.30L82.33 4.30Q82.28 4.52 82.28 4.90L82.28 4.90L82.28 4.90Q82.28 5.56 82.25 6.26L82.25 6.26L82.24 7.07L82.24 7.07Q82.24 7.28 82.31 7.91L82.31 7.91L82.31 7.91Q82.36 8.33 82.36 8.50L82.36 8.50L82.36 8.50Q82.36 8.83 82.24 9.09L82.24 9.09L82.24 9.09Q82.43 9.25 82.87 9.30L82.87 9.30L82.87 9.30Q83.31 9.35 83.94 9.35L83.94 9.35L83.94 9.35Q83.94 9.00 83.99 8.76L83.99 8.76L83.99 8.76Q84.04 8.51 84.24 8.51L84.24 8.51L84.24 8.51Q84.45 8.51 84.52 8.55L84.52 8.55L84.52 8.55Q84.59 8.58 84.81 8.79L84.81 8.79L84.81 8.79Q84.74 8.93 84.74 9.10L84.74 9.10L84.74 9.10Q84.73 9.17 84.73 9.34L84.73 9.34L84.73 9.34Q84.73 9.63 84.77 9.95L84.77 9.95L84.77 9.95Q84.80 10.35 84.80 10.51L84.80 10.51L84.80 10.51Q84.80 10.79 84.74 10.94L84.74 10.94L84.74 10.94Q84.67 11.09 84.52 11.09L84.52 11.09L84.52 11.09Q84.48 11.06 84.34 10.98L84.34 10.98L84.34 10.98Q84.20 10.89 84.07 10.77L84.07 10.77L84.07 10.77Q83.94 10.64 83.94 10.51L83.94 10.51L83.94 10.22L82.53 10.22L82.53 10.22Q82.38 10.67 82.38 11.41L82.38 11.41L82.38 11.41Q82.38 11.89 82.42 12.35L82.42 12.35L82.42 12.35Q82.45 12.91 82.45 13.12L82.45 13.12L82.45 13.12Q82.45 13.17 82.49 14.64L82.49 14.64L82.49 14.64Q82.53 15.26 82.53 15.65L82.53 15.65L82.53 15.65Q83.10 15.85 83.56 15.89L83.56 15.89L83.56 15.89Q84.01 15.93 84.81 15.93L84.81 15.93L84.81 15.93Q85.02 15.83 85.06 15.64L85.06 15.64L85.06 15.64Q85.11 15.51 85.11 15.23L85.11 15.23L85.11 15.23Q85.11 14.94 85.16 14.78L85.16 14.78L85.16 14.78Q85.20 14.62 85.39 14.52L85.39 14.52L85.39 14.52Q85.76 14.52 85.86 14.90L85.86 14.90L85.86 14.90Q85.96 15.29 85.96 15.93L85.96 15.93L85.96 15.93Q85.96 16.13 85.83 16.30L85.83 16.30L85.83 16.30Q85.69 16.48 85.39 16.80L85.39 16.80L83.94 16.80L83.94 16.80Q82.52 16.80 81.52 16.75L81.52 16.75L81.52 16.75Q80.51 16.70 79.38 16.51L79.38 16.51L79.38 15.93L80.53 15.93L80.53 15.93Q80.65 15.19 80.65 14.31L80.65 14.31L80.65 14.31Q80.65 13.82 80.60 12.78L80.60 12.78L80.60 12.78Q80.53 11.87 80.53 11.09L80.53 11.09L80.53 10.51L80.53 7.64L80.53 6.51L80.53 3.95L79.38 3.95L79.38 3.37L79.38 3.37Q79.97 3.22 81.14 3.08L81.14 3.08L81.14 3.08Q82.26 2.94 82.81 2.80L82.81 2.80L85.67 2.80L85.67 2.80Q85.69 2.83 85.76 2.91L85.76 2.91L85.76 2.91Q85.83 2.98 85.90 3.12L85.90 3.12L85.90 3.12Q85.96 3.25 85.96 3.37L85.96 3.37L85.96 3.37Q85.96 3.54 86.03 3.85L86.03 3.85L86.03 3.85Q86.10 4.34 86.10 4.44L86.10 4.44L86.10 4.44Q86.10 4.75 85.95 4.91L85.95 4.91L85.95 4.91Q85.79 5.08 85.39 5.08L85.39 5.08ZM91.22 7.71L91.22 7.71Q91.22 7.85 91.31 7.92L91.31 7.92L91.31 7.92Q91.39 7.98 91.64 8.09L91.64 8.09L91.64 8.09Q91.81 8.15 92.08 8.29L92.08 8.29L92.08 8.29Q92.55 8.76 92.88 9.59L92.88 9.59L92.88 9.59Q93.21 10.42 93.21 11.42L93.21 11.42L93.21 11.42Q93.27 11.77 93.27 12.24L93.27 12.24L93.27 12.24Q93.27 13.58 92.70 14.80L92.70 14.80L92.70 14.80Q92.13 16.02 91.22 16.58L91.22 16.58L91.22 16.58Q90.83 16.77 90.42 16.81L90.42 16.81L90.42 16.81Q90.01 16.86 89.22 16.86L89.22 16.86L89.22 16.86Q88.93 16.86 88.37 16.72L88.37 16.72L88.37 16.72Q87.78 16.58 87.50 16.58L87.50 16.58L87.50 16.58Q87.15 16.58 86.99 16.55L86.99 16.55L86.99 16.55Q86.83 16.52 86.74 16.40L86.74 16.40L86.74 16.40Q86.65 16.28 86.65 16.00L86.65 16.00L86.65 15.71L87.50 15.71L87.50 15.71Q87.58 15.36 87.64 14.59L87.64 14.59L87.64 14.59Q87.65 14.20 87.65 13.38L87.65 13.38L87.65 13.38Q87.65 12.56 87.68 11.99L87.68 11.99L87.68 11.99Q87.70 11.42 87.79 10.85L87.79 10.85L87.79 10.29L87.79 8.86L87.79 5.99L87.79 3.71L87.79 3.71Q87.22 3.71 86.93 3.61L86.93 3.61L86.93 3.61Q86.65 3.51 86.65 3.14L86.65 3.14L86.65 3.14Q86.83 2.95 87.16 2.91L87.16 2.91L87.16 2.91Q87.50 2.86 88.07 2.86L88.07 2.86L88.07 2.86Q89.50 2.86 90.31 2.95L90.31 2.95L90.31 2.95Q91.13 3.05 91.50 3.43L91.50 3.43L91.50 3.43Q91.56 3.54 91.61 3.63L91.61 3.63L91.61 3.63Q91.66 3.71 91.69 3.78L91.69 3.78L91.69 3.78Q91.90 4.14 91.99 4.42L91.99 4.42L91.99 4.42Q92.08 4.70 92.08 5.14L92.08 5.14L92.08 5.14Q92.15 5.33 92.15 5.63L92.15 5.63L92.15 5.63Q92.15 6.16 91.88 6.74L91.88 6.74L91.88 6.74Q91.60 7.32 91.22 7.71L91.22 7.71ZM89.50 3.71L89.50 3.71Q89.31 3.91 89.26 4.13L89.26 4.13L89.26 4.13Q89.22 4.35 89.22 4.86L89.22 4.86L89.22 4.86Q89.22 5.64 89.26 6.06L89.26 6.06L89.26 6.06Q89.31 6.47 89.50 6.86L89.50 6.86L89.50 6.86Q89.57 6.93 89.66 6.93L89.66 6.93L89.66 6.93Q89.77 6.93 89.88 6.83L89.88 6.83L89.88 6.83Q89.99 6.72 90.15 6.52L90.15 6.52L90.36 6.29L90.36 6.29Q90.55 5.73 90.66 5.31L90.66 5.31L90.66 5.31Q90.76 4.90 90.76 4.56L90.76 4.56L90.76 4.56Q90.76 4.23 90.65 4.00L90.65 4.00L90.65 4.00Q90.45 3.81 90.15 3.76L90.15 3.76L90.15 3.76Q89.85 3.71 89.50 3.71L89.50 3.71ZM90.65 15.43L91.22 14.85L91.22 14.85Q91.41 14.67 91.46 14.37L91.46 14.37L91.46 14.37Q91.50 14.07 91.50 13.72L91.50 13.72L91.50 13.72Q91.71 13.50 91.75 13.43L91.75 13.43L91.75 13.43Q91.78 13.36 91.78 13.15L91.78 13.15L91.78 13.15Q91.91 12.89 91.91 12.42L91.91 12.42L91.91 12.42Q91.91 12.22 91.84 11.49L91.84 11.49L91.84 11.49Q91.78 10.99 91.78 10.85L91.78 10.85L91.80 10.37L91.80 10.37Q91.80 10.21 91.76 10.05L91.76 10.05L91.76 10.05Q91.71 9.90 91.59 9.65L91.59 9.65L91.59 9.65Q91.59 9.65 91.60 9.63L91.60 9.63L91.60 9.63Q91.60 9.60 91.60 9.58L91.60 9.58L91.57 9.37L91.57 9.37Q91.56 9.32 91.50 9.18L91.50 9.18L91.50 9.18Q91.43 9.04 91.35 8.85L91.35 8.85L91.35 8.85Q90.93 8.43 90.44 8.21L90.44 8.21L90.44 8.21Q89.95 7.99 89.50 7.99L89.50 7.99L89.50 7.99Q89.32 8.19 89.27 8.49L89.27 8.49L89.27 8.49Q89.22 8.79 89.22 9.14L89.22 9.14L89.22 13.72L89.22 15.71L89.22 15.71Q89.78 15.71 90.12 15.66L90.12 15.66L90.12 15.66Q90.45 15.61 90.65 15.43L90.65 15.43ZM100.87 15.46L100.87 15.46Q100.73 15.71 100.51 15.95L100.51 15.95L100.51 15.95Q100.28 16.18 100.09 16.31L100.09 16.31L100.09 16.31Q99.27 16.83 98.36 16.83L98.36 16.83L98.36 16.83Q97.45 16.83 96.68 16.34L96.68 16.34L96.68 16.34Q95.90 15.86 95.52 15.16L95.52 15.16L95.52 15.16Q95.00 14.18 94.65 13.15L94.65 13.15L94.65 13.15Q94.47 12.40 94.42 11.64L94.42 11.64L94.42 11.64Q94.37 10.88 94.37 9.73L94.37 9.73L94.37 9.73Q94.37 9.55 94.35 9.21L94.35 9.21L94.35 9.21Q94.32 8.85 94.32 8.67L94.32 8.67L94.32 8.67Q94.32 8.34 94.37 8.01L94.37 8.01L94.37 8.01Q94.39 7.92 94.46 7.55L94.46 7.55L94.46 7.55Q94.53 7.17 94.53 6.92L94.53 6.92L94.53 6.92Q94.56 6.78 94.63 6.38L94.63 6.38L94.63 6.38Q94.68 6.01 94.75 5.78L94.75 5.78L94.75 5.78Q94.81 5.56 94.95 5.43L94.95 5.43L94.95 5.43Q95.10 5.22 95.41 4.75L95.41 4.75L95.41 4.75Q95.83 4.10 96.13 3.74L96.13 3.74L96.13 3.74Q96.43 3.37 96.89 3.11L96.89 3.11L96.89 3.11Q97.34 2.84 97.96 2.84L97.96 2.84L97.96 2.84Q98.24 2.84 98.39 2.87L98.39 2.87L98.39 2.87Q99.23 2.87 99.73 3.12L99.73 3.12L99.73 3.12Q100.23 3.37 100.66 4.02L100.66 4.02L100.66 4.02Q101.32 4.45 101.77 5.36L101.77 5.36L101.77 5.36Q102.23 6.27 102.33 7.36L102.33 7.36L102.33 7.36Q102.38 7.94 102.38 8.88L102.38 8.88L102.38 9.49L102.38 9.49Q102.38 10.92 102.14 11.91L102.14 11.91L102.14 11.91Q101.72 13.90 100.87 15.46L100.87 15.46ZM99.62 15.26L99.62 15.26Q99.81 14.80 100.04 14.08L100.04 14.08L100.04 14.08Q100.27 13.37 100.38 12.88L100.38 12.88L100.38 12.88Q100.56 12.31 100.61 11.73L100.61 11.73L100.61 11.73Q100.66 11.16 100.66 10.30L100.66 10.30L100.66 10.30Q100.66 10.01 100.72 9.56L100.72 9.56L100.72 9.56Q100.72 9.48 100.74 9.26L100.74 9.26L100.74 9.26Q100.76 9.04 100.76 8.85L100.76 8.85L100.76 8.85Q100.76 8.65 100.74 8.39L100.74 8.39L100.74 8.39Q100.73 8.13 100.72 7.99L100.72 7.99L100.72 7.99Q100.66 7.43 100.66 7.15L100.66 7.15L100.66 7.15Q100.52 6.87 100.38 6.31L100.38 6.31L100.38 6.31Q100.24 5.73 100.09 5.43L100.09 5.43L99.93 5.10L99.93 5.10Q99.68 4.55 99.48 4.24L99.48 4.24L99.48 4.24Q99.29 3.93 98.98 3.78L98.98 3.78L98.98 3.78Q98.70 3.78 98.42 3.75L98.42 3.75L98.42 3.75Q98.11 3.72 97.82 3.72L97.82 3.72L97.82 3.72Q97.40 4.14 97.15 4.60L97.15 4.60L97.15 4.60Q96.89 5.05 96.67 5.71L96.67 5.71L96.67 5.71Q96.47 6.09 96.43 6.48L96.43 6.48L96.43 6.48Q96.38 6.86 96.38 7.43L96.38 7.43L96.38 7.43Q96.26 8.33 96.26 9.42L96.26 9.42L96.26 9.42Q96.26 11.40 96.67 13.72L96.67 13.72L96.67 13.72Q96.77 13.92 96.83 14.14L96.83 14.14L96.83 14.14Q96.89 14.36 96.92 14.43L96.92 14.43L96.92 14.43Q97.01 14.73 97.07 14.89L97.07 14.89L97.07 14.89Q97.13 15.05 97.24 15.16L97.24 15.16L97.24 15.16Q97.36 15.16 97.39 15.20L97.39 15.20L97.39 15.20Q97.43 15.25 97.45 15.39L97.45 15.39L97.45 15.39Q97.48 15.53 97.57 15.61L97.57 15.61L97.57 15.61Q97.79 15.83 98.29 15.83L98.29 15.83L98.29 15.83Q98.73 15.83 99.13 15.67L99.13 15.67L99.13 15.67Q99.53 15.51 99.62 15.26L99.62 15.26ZM108.82 9.02L108.82 9.02Q109.21 9.52 109.42 10.26L109.42 10.26L109.42 10.26Q109.63 11.00 109.73 11.78L109.73 11.78L109.73 11.78Q109.82 12.56 109.89 13.78L109.89 13.78L109.89 13.78Q109.97 15.19 110.05 15.82L110.05 15.82L110.05 15.82Q110.36 15.82 110.50 15.87L110.50 15.87L110.50 15.87Q110.64 15.92 110.64 16.11L110.64 16.11L110.64 16.11Q110.64 16.80 109.63 16.80L109.63 16.80L109.63 16.80Q109.34 16.80 108.56 16.70L108.56 16.70L108.56 16.70Q108.37 16.52 108.33 16.30L108.33 16.30L108.33 16.21L108.33 16.21Q108.33 16.11 108.42 15.72L108.42 15.72L108.42 15.72Q108.46 15.51 108.51 15.23L108.51 15.23L108.51 15.23Q108.56 14.94 108.56 14.63L108.56 14.63L108.56 14.63Q108.56 14.20 108.49 13.83L108.49 13.83L108.49 13.83Q108.42 13.38 108.42 12.70L108.42 12.70L108.42 12.70Q108.39 11.87 108.30 11.36L108.30 11.36L108.30 11.36Q108.22 10.85 107.90 10.40L107.90 10.40L107.73 10.15L107.73 10.15Q107.53 9.83 107.31 9.60L107.31 9.60L107.31 9.60Q107.31 9.48 107.25 9.41L107.25 9.41L107.25 9.41Q107.18 9.34 107.03 9.24L107.03 9.24L107.03 9.24Q106.83 9.13 106.71 9.02L106.71 9.02L106.71 9.02Q106.41 9.02 106.27 9.07L106.27 9.07L106.27 9.07Q106.12 9.11 106.12 9.30L106.12 9.30L106.12 9.30Q105.98 10.01 105.98 10.88L105.98 10.88L105.98 10.88Q105.98 11.48 106.06 12.54L106.06 12.54L106.06 12.54Q106.12 13.47 106.12 13.80L106.12 13.80L106.12 13.80Q106.12 14.42 106.17 14.82L106.17 14.82L106.17 14.82Q106.22 15.22 106.40 15.62L106.40 15.62L106.40 15.62Q106.40 15.72 106.48 15.79L106.48 15.79L106.48 15.79Q106.55 15.85 106.71 15.92L106.71 15.92L106.71 15.92Q106.85 15.99 106.93 16.04L106.93 16.04L106.93 16.04Q107.00 16.10 107.00 16.20L107.00 16.20L107.00 16.20Q107.00 16.25 107.00 16.42L107.00 16.42L107.00 16.42Q107.00 16.59 106.95 16.66L106.95 16.66L106.95 16.66Q106.89 16.73 106.75 16.73L106.75 16.73L106.75 16.73Q106.50 16.73 106.16 16.69L106.16 16.69L106.16 16.69Q106.04 16.69 105.76 16.67L105.76 16.67L105.76 16.67Q105.48 16.65 105.27 16.65L105.27 16.65L105.27 16.65Q104.64 16.65 104.31 16.81L104.31 16.81L104.31 16.81Q103.94 16.81 103.75 16.79L103.75 16.79L103.75 16.79Q103.57 16.76 103.42 16.63L103.42 16.63L103.42 16.63Q103.26 16.49 103.11 16.20L103.11 16.20L103.11 16.20Q103.32 16.02 103.52 15.97L103.52 15.97L103.52 15.97Q103.71 15.92 104.01 15.92L104.01 15.92L104.01 10.81L104.01 10.81Q104.01 10.67 104.03 10.48L104.03 10.48L104.03 10.48Q104.06 10.29 104.08 10.21L104.08 10.21L104.08 10.21Q104.15 9.88 104.15 9.62L104.15 9.62L104.15 9.62Q104.15 9.30 104.01 9.02L104.01 9.02L104.01 9.02Q104.01 8.82 104.05 8.65L104.05 8.65L104.05 8.65Q104.10 8.29 104.10 8.23L104.10 8.23L104.10 8.23Q104.13 7.76 104.13 7.55L104.13 7.55L104.13 7.55Q104.13 7.11 104.08 6.22L104.08 6.22L104.08 6.22Q104.06 6.05 104.03 5.54L104.03 5.54L104.03 5.54Q104.01 5.03 104.01 4.51L104.01 4.51L104.01 4.51Q103.53 4.51 103.22 4.40L103.22 4.40L103.22 4.40Q102.91 4.30 102.91 4.07L102.91 4.07L102.91 4.07Q102.91 3.64 103.05 3.45L103.05 3.45L103.05 3.45Q103.18 3.26 103.43 3.22L103.43 3.22L103.43 3.22Q103.67 3.18 104.22 3.18L104.22 3.18L104.22 3.18Q104.37 3.18 104.57 3.09L104.57 3.09L104.57 3.09Q104.73 3.01 104.89 3.01L104.89 3.01L104.89 3.01Q105.73 2.87 106.51 2.87L106.51 2.87L106.51 2.87Q107.74 2.87 108.62 3.25L108.62 3.25L108.62 3.25Q109.49 3.63 109.70 4.51L109.70 4.51L109.70 4.51Q109.89 5.24 109.89 5.85L109.89 5.85L109.89 5.85Q109.89 6.47 109.70 6.90L109.70 6.90L109.70 6.90Q109.59 7.18 109.33 7.52L109.33 7.52L109.33 7.52Q109.07 7.85 108.82 8.11L108.82 8.11L108.51 8.41L108.51 8.41Q108.51 8.58 108.67 8.71L108.67 8.71L108.67 8.71Q108.82 8.86 108.82 9.02L108.82 9.02ZM105.84 3.93L105.84 3.93Q105.84 5.31 105.95 7.63L105.95 7.63L105.95 7.63Q105.95 7.78 106.19 7.78L106.19 7.78L106.19 7.78Q106.48 7.78 106.96 7.59L106.96 7.59L106.96 7.59Q107.44 7.39 107.62 7.21L107.62 7.21L107.62 7.21Q107.62 7.04 107.76 6.57L107.76 6.57L107.76 6.57Q107.87 6.22 107.90 6.02L107.90 6.02L107.90 6.02Q107.95 5.73 107.95 5.54L107.95 5.54L107.95 5.54Q107.95 5.40 107.93 5.22L107.93 5.22L107.93 5.22Q107.90 5.04 107.90 4.82L107.90 4.82L107.90 4.82Q107.90 4.56 107.79 4.40L107.79 4.40L107.79 4.40Q107.67 4.24 107.52 4.10L107.52 4.10L107.52 4.10Q107.37 3.96 107.31 3.91L107.31 3.91L105.84 3.93Z"></path></g><!----><g data-v-423bf9ae="" id="3114944b-7200-4ef2-8baa-c17c70181783" transform="matrix(1.356934006067305,0,0,1.356934006067305,166.15329969663475,-19.02634493486606)" stroke="none" fill="black"><path d="M0 80.408l40.816-66.326 30.803 45.911-9.555 9.378 1.201 1.854 18.367-18.367L100 80.408H0zm40.985-60.201L27.208 42.271l5.934-3.629 2.108 10.983 4.265-13.435 7.404 13.189.588-11.081 11.031 9.023-17.553-27.114z"></path></g><!----></svg>