<svg data-v-423bf9ae="" xmlns="http://www.w3.org/2000/svg" viewBox="0 0 552 90" class="iconLeft"><!----><!----><!----><g data-v-423bf9ae="" id="94640dcd-cee5-444f-9310-10a6644f0639" fill="white" transform="matrix(6.072874423584482,0,0,6.072874423584482,108.17814794256864,-2.793521274417742)"><path d="M5.15 12.78L6.91 11.53L6.74 11.20L6.74 11.20Q6.19 11.66 6.21 9.74L6.21 9.74L6.21 9.74Q6.28 5.43 6.19 4.76L6.19 4.76L6.19 4.76Q6.09 4.10 5.56 3.62L5.56 3.62L4.06 4.74L4.06 4.98L4.06 4.98Q4.55 4.83 4.63 5.22L4.63 5.22L4.63 5.22Q4.81 7.16 4.68 10.08L4.68 10.08L4.68 10.08Q3.73 11.25 3.08 10.91L3.08 10.91L3.08 10.91Q2.42 10.58 2.43 8.48L2.43 8.48L2.43 8.48Q2.47 5.50 2.42 4.79L2.42 4.79L2.42 4.79Q2.37 4.07 1.78 3.55L1.78 3.55L0.30 4.73L0.33 4.96L0.33 4.96Q0.84 4.84 0.91 5.24L0.91 5.24L0.94 9.38L0.94 9.38Q0.88 10.66 1.09 11.44L1.09 11.44L1.09 11.44Q1.30 12.21 1.92 12.58L1.92 12.58L1.92 12.58Q2.55 12.95 3.13 12.57L3.13 12.57L3.13 12.57Q3.71 12.19 4.08 11.77L4.08 11.77L4.08 11.77Q4.45 11.35 4.65 11.04L4.65 11.04L4.65 11.04Q4.58 12.26 5.15 12.78L5.15 12.78ZM8.92 6.42L7.25 7.64L7.40 7.87L7.40 7.87Q7.91 7.56 7.85 8.50L7.85 8.50L7.85 8.50Q7.79 11.46 7.88 11.91L7.88 11.91L7.88 11.91Q7.96 12.37 8.54 12.71L8.54 12.71L9.99 11.46L9.99 11.29L9.99 11.29Q9.53 11.40 9.41 10.78L9.41 10.78L9.41 10.78Q9.28 10.17 9.36 8.27L9.36 8.27L9.36 8.27Q10.23 7.48 10.84 7.71L10.84 7.71L10.84 7.71Q11.44 7.94 11.44 9.37L11.44 9.37L11.44 9.37Q11.40 11.42 11.45 11.91L11.45 11.91L11.45 11.91Q11.50 12.40 12.04 12.76L12.04 12.76L13.46 11.49L13.43 11.33L13.43 11.33Q13.07 11.44 12.95 10.81L12.95 10.81L12.95 10.81Q12.84 10.18 12.91 8.74L12.91 8.74L12.91 8.74Q12.95 7.86 12.76 7.33L12.76 7.33L12.76 7.33Q12.57 6.80 11.95 6.56L11.95 6.56L11.95 6.56Q11.33 6.31 10.79 6.57L10.79 6.57L10.79 6.57Q10.26 6.83 9.92 7.12L9.92 7.12L9.92 7.12Q9.57 7.40 9.39 7.62L9.39 7.62L9.39 7.62Q9.45 6.77 8.92 6.42L8.92 6.42ZM18.66 2.93L18.66 2.93L17.33 3.85L17.33 3.85Q17.65 4.42 17.61 6.77L17.61 6.77L17.61 6.77Q17.11 6.51 16.68 6.55L16.68 6.55L16.68 6.55Q16.25 6.58 15.72 6.94L15.72 6.94L15.72 6.94Q15.18 7.30 14.56 7.91L14.56 7.91L14.56 7.91Q13.95 8.51 13.73 9.61L13.73 9.61L13.73 9.61Q13.52 10.71 14.15 11.71L14.15 11.71L14.15 11.71Q14.79 12.71 15.52 12.75L15.52 12.75L15.52 12.75Q16.26 12.78 17.72 11.28L17.72 11.28L17.72 11.28Q17.72 12.25 18.57 12.77L18.57 12.77L19.76 11.76L19.76 11.76Q19.04 11.37 19.15 7.21L19.15 7.21L19.15 7.21Q19.27 3.04 18.66 2.93ZM15.25 7.93L15.25 7.93Q16.32 7.84 16.73 8.83L16.73 8.83L17.64 8.05L17.64 8.45L17.66 8.62L17.66 10.73L17.58 10.76L17.58 10.76Q17.39 11.18 16.68 11.23L16.68 11.23L16.68 11.23Q15.97 11.29 15.39 10.33L15.39 10.33L15.39 10.33Q14.82 9.38 15.25 7.93L15.25 7.93ZM23.24 6.60L23.24 6.60L23.24 6.60Q22.18 6.43 21.25 7.26L21.25 7.26L21.25 7.26Q20.32 8.09 20.06 9.20L20.06 9.20L20.06 9.20Q19.80 10.31 20.22 11.26L20.22 11.26L20.22 11.26Q20.64 12.22 21.78 12.62L21.78 12.62L21.78 12.62Q22.71 12.93 23.71 12.18L23.71 12.18L23.71 12.18Q24.72 11.43 25.03 10.77L25.03 10.77L24.83 10.61L24.83 10.61Q23.45 11.56 22.63 11.24L22.63 11.24L22.63 11.24Q21.81 10.92 21.67 10.51L21.67 10.51L23.15 9.54L23.15 9.54Q24.60 8.65 24.45 7.70L24.45 7.70L24.45 7.70Q24.31 6.76 23.24 6.60ZM21.15 8.64L21.15 8.64L21.15 8.64Q21.14 8.14 21.51 7.78L21.51 7.78L21.51 7.78Q21.88 7.41 22.49 7.78L22.49 7.78L22.49 7.78Q23.10 8.15 23.00 8.76L23.00 8.76L23.00 8.76Q22.91 9.37 21.46 10.14L21.46 10.14L21.46 10.14Q21.31 9.80 21.24 9.47L21.24 9.47L21.24 9.47Q21.17 9.14 21.15 8.64ZM27.02 6.42L25.34 7.64L25.50 7.87L25.50 7.87Q26.00 7.56 25.95 8.50L25.95 8.50L25.95 8.50Q25.88 11.46 25.97 11.91L25.97 11.91L25.97 11.91Q26.06 12.37 26.63 12.71L26.63 12.71L28.08 11.46L28.08 11.29L28.08 11.29Q27.62 11.40 27.50 10.78L27.50 10.78L27.50 10.78Q27.38 10.17 27.45 8.27L27.45 8.27L27.45 8.27Q28.33 7.48 28.99 8.43L28.99 8.43L30.23 7.29L30.23 7.29Q29.45 6.25 28.82 6.49L28.82 6.49L28.82 6.49Q28.19 6.72 27.48 7.62L27.48 7.62L27.48 7.62Q27.54 6.77 27.02 6.42L27.02 6.42ZM31.39 3.05L30.21 3.99L30.21 3.99Q30.39 4.34 30.41 4.93L30.41 4.93L30.41 4.93Q30.39 11.40 30.51 11.88L30.51 11.88L30.51 11.88Q30.63 12.37 30.99 12.81L30.99 12.81L32.44 11.46L32.44 11.29L32.44 11.29Q31.99 11.40 31.86 10.78L31.86 10.78L31.86 10.78Q31.74 10.17 31.81 8.27L31.81 8.27L31.81 8.27Q32.82 7.50 33.42 7.73L33.42 7.73L33.42 7.73Q34.03 7.96 34.02 9.39L34.02 9.39L34.02 9.39Q33.99 11.44 34.04 11.93L34.04 11.93L34.04 11.93Q34.08 12.42 34.62 12.78L34.62 12.78L36.00 11.53L36.01 11.35L36.01 11.35Q35.66 11.46 35.54 10.83L35.54 10.83L35.54 10.83Q35.42 10.20 35.49 8.76L35.49 8.76L35.49 8.76Q35.54 7.88 35.35 7.35L35.35 7.35L35.35 7.35Q35.16 6.82 34.54 6.58L34.54 6.58L34.54 6.58Q33.91 6.33 33.38 6.59L33.38 6.59L33.38 6.59Q32.85 6.85 32.50 7.14L32.50 7.14L32.50 7.14Q32.16 7.42 31.84 7.62L31.84 7.62L31.81 3.91L31.81 3.91Q31.73 3.32 31.39 3.05L31.39 3.05ZM37.60 3.68L36.24 4.86L36.24 4.86Q36.87 5.30 37.20 5.91L37.20 5.91L37.20 5.91Q38.35 5.15 38.49 4.96L38.49 4.96L38.49 4.96Q38.63 4.76 38.42 4.31L38.42 4.31L38.42 4.31Q38.21 3.86 37.60 3.68L37.60 3.68ZM36.45 7.76L36.45 7.76Q37.03 7.43 36.83 9.23L36.83 9.23L36.83 9.23Q36.80 11.37 36.85 11.88L36.85 11.88L36.85 11.88Q36.89 12.39 37.45 12.72L37.45 12.72L38.81 11.45L38.82 11.27L38.82 11.27Q38.45 11.29 38.36 10.76L38.36 10.76L38.36 10.76Q38.27 10.23 38.31 8.94L38.31 8.94L38.31 8.94Q38.35 7.65 38.33 7.25L38.33 7.25L38.33 7.25Q38.32 6.85 37.96 6.45L37.96 6.45L36.34 7.57L36.45 7.76ZM40.41 3.24L39.23 4.21L39.23 4.21Q39.40 4.54 39.43 5.11L39.43 5.11L39.43 5.11Q39.36 11.51 39.47 12.01L39.47 12.01L39.47 12.01Q39.58 12.50 40.11 12.81L40.11 12.81L41.86 11.55L41.66 11.33L41.66 11.33Q41.20 11.43 40.98 11.03L40.98 11.03L40.98 11.03Q40.76 10.62 40.83 4.07L40.83 4.07L40.83 4.07Q40.74 3.51 40.41 3.24L40.41 3.24ZM43.26 3.24L42.09 4.21L42.09 4.21Q42.26 4.54 42.29 5.11L42.29 5.11L42.29 5.11Q42.22 11.51 42.33 12.01L42.33 12.01L42.33 12.01Q42.44 12.50 42.97 12.81L42.97 12.81L44.72 11.55L44.52 11.33L44.52 11.33Q44.06 11.43 43.84 11.03L43.84 11.03L43.84 11.03Q43.61 10.62 43.69 4.07L43.69 4.07L43.69 4.07Q43.60 3.51 43.26 3.24L43.26 3.24ZM50.34 3.66L50.34 3.66L50.34 3.66Q49.88 3.88 49.46 4.31L49.46 4.31L49.46 4.31Q49.26 3.75 48.80 3.58L48.80 3.58L47.54 4.68L47.63 4.97L47.63 4.97Q48.15 4.76 48.06 7.83L48.06 7.83L48.06 7.83Q47.87 10.55 48.02 11.27L48.02 11.27L48.02 11.27Q48.16 11.99 49.21 12.52L49.21 12.52L49.21 12.52Q50.26 13.06 51.30 12.41L51.30 12.41L51.30 12.41Q52.34 11.76 52.72 11.30L52.72 11.30L52.72 11.30Q53.10 10.83 53.23 10.43L53.23 10.43L53.23 10.43Q53.37 10.03 53.39 9.41L53.39 9.41L53.39 9.41Q53.41 8.78 53.01 7.99L53.01 7.99L53.01 7.99Q52.62 7.21 51.29 7.03L51.29 7.03L51.29 7.03Q52.72 6.01 52.52 4.96L52.52 4.96L52.52 4.96Q52.32 3.92 51.56 3.68L51.56 3.68L51.56 3.68Q50.80 3.44 50.34 3.66ZM50.36 4.49L50.36 4.49L50.36 4.49Q50.91 4.63 51.11 5.41L51.11 5.41L51.11 5.41Q51.30 6.19 50.88 6.96L50.88 6.96L50.88 6.96Q49.94 6.95 49.57 7.33L49.57 7.33L49.59 4.83L49.59 4.83Q49.81 4.34 50.36 4.49ZM49.54 8.32L49.54 8.32Q49.81 7.64 50.40 7.57L50.40 7.57L50.40 7.57Q51.00 7.51 51.53 8.29L51.53 8.29L51.53 8.29Q52.07 9.06 51.98 9.92L51.98 9.92L51.98 9.92Q51.90 10.78 51.48 11.31L51.48 11.31L51.48 11.31Q51.07 11.84 50.50 11.55L50.50 11.55L50.50 11.55Q49.92 11.27 49.65 10.63L49.65 10.63L49.65 10.63Q49.37 10.00 49.54 8.32L49.54 8.32ZM56.90 6.49L56.90 6.49L56.90 6.49Q55.89 6.45 54.82 7.15L54.82 7.15L54.82 7.15Q53.76 7.85 54.37 9.02L54.37 9.02L55.90 8.13L55.90 8.13Q55.22 7.09 56.48 7.06L56.48 7.06L56.48 7.06Q57.74 7.03 57.59 8.76L57.59 8.76L55.38 8.80L53.68 10.71L53.68 10.71Q53.61 11.55 54.27 12.14L54.27 12.14L54.27 12.14Q54.94 12.73 55.60 12.70L55.60 12.70L55.60 12.70Q56.25 12.67 56.72 12.39L56.72 12.39L56.72 12.39Q57.18 12.10 57.63 11.57L57.63 11.57L57.63 11.57Q57.80 12.52 58.75 12.69L58.75 12.69L59.96 11.38L59.88 11.21L59.88 11.21Q59.32 11.33 59.17 10.58L59.17 10.58L59.18 8.16L59.18 8.16Q59.10 7.23 58.50 6.88L58.50 6.88L58.50 6.88Q57.90 6.53 56.90 6.49ZM55.07 9.88L57.58 9.88L57.58 11.11L57.58 11.11Q57.33 11.42 56.44 11.39L56.44 11.39L56.44 11.39Q55.54 11.35 54.82 10.12L54.82 10.12L55.07 9.88ZM61.87 6.42L60.19 7.64L60.35 7.87L60.35 7.87Q60.85 7.56 60.80 8.50L60.80 8.50L60.80 8.50Q60.73 11.46 60.82 11.91L60.82 11.91L60.82 11.91Q60.91 12.37 61.48 12.71L61.48 12.71L62.93 11.46L62.93 11.29L62.93 11.29Q62.47 11.40 62.35 10.78L62.35 10.78L62.35 10.78Q62.23 10.17 62.30 8.27L62.30 8.27L62.30 8.27Q63.18 7.48 63.78 7.71L63.78 7.71L63.78 7.71Q64.39 7.94 64.38 9.37L64.38 9.37L64.38 9.37Q64.35 11.42 64.39 11.91L64.39 11.91L64.39 11.91Q64.44 12.40 64.98 12.76L64.98 12.76L66.40 11.49L66.37 11.33L66.37 11.33Q66.01 11.44 65.90 10.81L65.90 10.81L65.90 10.81Q65.78 10.18 65.85 8.74L65.85 8.74L65.85 8.74Q65.90 7.86 65.71 7.33L65.71 7.33L65.71 7.33Q65.52 6.80 64.89 6.56L64.89 6.56L64.89 6.56Q64.27 6.31 63.74 6.57L63.74 6.57L63.74 6.57Q63.21 6.83 62.86 7.12L62.86 7.12L62.86 7.12Q62.51 7.40 62.33 7.62L62.33 7.62L62.33 7.62Q62.39 6.77 61.87 6.42L61.87 6.42ZM68.00 2.95L66.73 3.94L66.73 3.94Q66.91 4.29 66.94 4.87L66.94 4.87L66.94 4.87Q66.86 11.47 66.98 11.98L66.98 11.98L66.98 11.98Q67.09 12.50 67.55 12.81L67.55 12.81L69.15 11.61L68.95 11.39L68.95 11.39Q68.58 11.69 68.50 11.14L68.50 11.14L68.50 11.14Q68.42 10.59 68.46 8.05L68.46 8.05L68.46 8.05Q69.09 7.52 69.55 7.58L69.55 7.58L69.55 7.58Q70 7.64 70.10 8.03L70.10 8.03L70.10 8.03Q70.20 8.42 69.86 8.77L69.86 8.77L69.86 8.77Q69.51 9.13 68.56 9.56L68.56 9.56L68.56 10.00L68.56 10.00Q69.13 9.33 69.87 10.86L69.87 10.86L69.87 10.86Q70.62 12.38 71.23 12.77L71.23 12.77L72.96 11.42L72.76 11.25L72.76 11.25Q72.25 11.61 71.53 10.46L71.53 10.46L71.53 10.46Q70.81 9.32 70.33 9.13L70.33 9.13L70.33 9.13Q71.20 8.69 71.51 8.18L71.51 8.18L71.51 8.18Q71.83 7.66 71.55 7.13L71.55 7.13L71.55 7.13Q71.26 6.60 70.77 6.54L70.77 6.54L70.77 6.54Q70.27 6.47 69.79 6.68L69.79 6.68L69.79 6.68Q69.32 6.89 68.43 7.59L68.43 7.59L68.43 3.80L68.43 3.80Q68.35 3.22 68.00 2.95L68.00 2.95Z"></path></g><!----><g data-v-423bf9ae="" id="af5b57cf-7de7-41b4-b635-acf8eaa27425" transform="matrix(2.8125,0,0,2.8125,0,0)" stroke="none" fill="white"><path d="M0 16.024L15.976 32 32 15.976 16.024 0 0 16.024zm15.989 7.323l-7.336-7.336 14.694-.022-7.358 7.358z"></path></g><!----></svg>